<?xml version="1.0" standalone="no"?>
<svg
  width="600"
  height="600"
  viewBox="0 0 600 600"
  xmlns="http://www.w3.org/2000/svg"
>
  <g transform="translate(300,300)">
    <path d="M116.3,-199.9C132.3,-170.6,114.4,-107.3,130.7,-62.4C147.1,-17.4,197.8,9.1,211,41.9C224.3,74.7,200.2,113.6,169.1,142.9C138.1,172.1,100,191.6,62.6,193.5C25.3,195.4,-11.5,179.7,-50.4,169.3C-89.3,158.9,-130.4,153.8,-161.7,132.1C-192.9,110.4,-214.2,72.1,-214,34.4C-213.8,-3.3,-191.9,-40.5,-177.9,-85.4C-163.9,-130.3,-157.6,-182.9,-129.3,-206.6C-100.9,-230.4,-50.5,-225.2,-0.2,-224.9C50.1,-224.6,100.2,-229.2,116.3,-199.9Z" fill="#eb144c" />
  </g>
</svg>
  