<?xml version="1.0" standalone="no"?>
<svg
  width="600"
  height="600"
  viewBox="0 0 600 600"
  xmlns="http://www.w3.org/2000/svg"
>
  <g transform="translate(300,300)">
    <path d="M89.3,-138.6C116.6,-121.4,140.2,-98.1,156.3,-69.4C172.5,-40.7,181.3,-6.7,189,36.1C196.7,78.9,203.4,130.5,178.8,150.1C154.2,169.7,98.4,157.3,50.8,169.8C3.2,182.3,-36.2,219.7,-70.8,219.5C-105.5,219.2,-135.5,181.3,-160.9,143.9C-186.2,106.5,-206.9,69.6,-196,38.1C-185.1,6.6,-142.6,-19.6,-121,-50.5C-99.5,-81.5,-99,-117.3,-82.3,-139.4C-65.6,-161.4,-32.8,-169.7,-0.9,-168.3C31,-166.9,62,-155.8,89.3,-138.6Z" fill="#8ed1fc" />
  </g>
</svg>
  