<?xml version="1.0" standalone="no"?>
<svg
  width="600"
  height="600"
  viewBox="0 0 600 600"
  xmlns="http://www.w3.org/2000/svg"
>
  <g transform="translate(300,300)">
    <path d="M99.2,-132.3C136,-130.7,178.5,-115.8,182.1,-88.8C185.6,-61.8,150.2,-22.6,135.9,13.7C121.6,50.1,128.5,83.6,119.2,114.6C110,145.6,84.7,174,57.2,171.3C29.8,168.6,0.1,134.6,-37.4,124.8C-74.9,115,-120.2,129.2,-131.8,114.8C-143.3,100.4,-121.2,57.3,-125.1,19C-129.1,-19.3,-159.1,-52.9,-164.6,-89.4C-170.1,-126,-151,-165.6,-119.5,-169.7C-87.9,-173.8,-44,-142.4,-6.4,-132.5C31.2,-122.5,62.4,-134,99.2,-132.3Z" fill="#ff6900" />
  </g>
</svg>
  