<?xml version="1.0" standalone="no"?>
<svg
  width="600"
  height="600"
  viewBox="0 0 600 600"
  xmlns="http://www.w3.org/2000/svg"
>
  <g transform="translate(300,300)">
    <path d="M87.1,-159.4C107.6,-122.4,115.2,-89.3,135.5,-58C155.8,-26.8,188.7,2.6,197.3,37C205.8,71.5,189.8,111,163.7,142.8C137.7,174.6,101.5,198.6,59.8,217C18,235.4,-29.3,248.2,-55.8,224.6C-82.3,201.1,-88,141.1,-109.4,102.5C-130.8,64,-167.8,46.7,-166.2,26.8C-164.5,6.9,-124.1,-15.7,-114.6,-59C-105.2,-102.3,-126.7,-166.4,-112.7,-206.4C-98.8,-246.3,-49.4,-262.2,-8,-249.7C33.3,-237.2,66.7,-196.4,87.1,-159.4Z" fill="#00d084" />
  </g>
</svg>
  