<?xml version="1.0" standalone="no"?>
<svg
  width="600"
  height="600"
  viewBox="0 0 600 600"
  xmlns="http://www.w3.org/2000/svg"
>
  <g transform="translate(300,300)">
    <path d="M101.2,-114.2C142.1,-109.6,193.8,-94.7,203.7,-65.8C213.7,-36.9,182,6,147.3,27.9C112.7,49.8,75.2,50.8,50.1,65.7C25.1,80.5,12.5,109.3,-6.3,117.9C-25.1,126.5,-50.2,115,-81.7,102.3C-113.2,89.5,-151.3,75.5,-166.1,49.3C-181,23.2,-172.8,-15.1,-154,-42.9C-135.2,-70.7,-105.8,-87.9,-78.4,-96.9C-50.9,-105.8,-25.5,-106.4,2.4,-109.6C30.2,-112.9,60.3,-118.7,101.2,-114.2Z" fill="#fcb900" />
  </g>
</svg>
  