<?xml version="1.0" standalone="no"?>
<svg
  width="600"
  height="600"
  viewBox="0 0 600 600"
  xmlns="http://www.w3.org/2000/svg"
>
  <g transform="translate(300,300)">
    <path d="M128.6,-170.2C156.5,-156.7,161.9,-105.6,147.7,-67.4C133.5,-29.2,99.5,-3.9,84.7,23.1C69.8,50.1,74,78.8,63.1,90.1C52.1,101.4,26.1,95.2,4.2,89.4C-17.6,83.6,-35.3,78.2,-80.9,78.2C-126.6,78.2,-200.2,83.6,-229.9,59C-259.6,34.3,-245.4,-20.4,-216,-57.6C-186.6,-94.8,-142.1,-114.6,-103.6,-124.5C-65,-134.5,-32.5,-134.8,8.9,-147C50.4,-159.3,100.7,-183.6,128.6,-170.2Z" fill="#8ed1fc" />
  </g>
</svg>
  