<?xml version="1.0" standalone="no"?>
<svg
  width="600"
  height="600"
  viewBox="0 0 600 600"
  xmlns="http://www.w3.org/2000/svg"
>
  <g transform="translate(300,300)">
    <path d="M95.7,-151.6C135.6,-123.3,187.4,-116.3,214.4,-88.7C241.3,-61.1,243.4,-12.9,239.8,36.8C236.2,86.4,226.9,137.5,196.3,166.6C165.7,195.8,113.7,203,65.9,210.9C18,218.8,-25.6,227.4,-62.4,215.3C-99.1,203.2,-128.9,170.4,-159.8,137.1C-190.6,103.9,-222.5,70.2,-233.9,30C-245.4,-10.2,-236.4,-57,-211.9,-91C-187.5,-125,-147.5,-146.2,-109.6,-175.4C-71.7,-204.6,-35.9,-241.8,-4,-235.6C27.9,-229.5,55.9,-179.9,95.7,-151.6Z" fill="#FFB4BC" />
  </g>
</svg>
  