<?xml version="1.0" standalone="no"?>
<svg
  width="600"
  height="600"
  viewBox="0 0 600 600"
  xmlns="http://www.w3.org/2000/svg"
>
  <g transform="translate(300,300)">
    <path d="M69.2,-111.1C89,-80.8,103.9,-59.7,104.9,-38.4C105.9,-17.1,92.9,4.4,98.5,45.9C104.2,87.4,128.5,148.9,115.2,167.4C101.9,185.9,50.9,161.4,4.4,155.4C-42.1,149.3,-84.2,161.6,-131,154C-177.8,146.3,-229.2,118.8,-225.7,84C-222.2,49.3,-163.9,7.5,-137.7,-36C-111.5,-79.5,-117.5,-124.7,-99.9,-155.6C-82.3,-186.6,-41.1,-203.3,-8.2,-192C24.7,-180.6,49.4,-141.3,69.2,-111.1Z" fill="#abb8c3" />
  </g>
</svg>
  