<?xml version="1.0" standalone="no"?>
<svg
  width="600"
  height="600"
  viewBox="0 0 600 600"
  xmlns="http://www.w3.org/2000/svg"
>
  <g transform="translate(300,300)">
    <path d="M123.1,-207.9C150.7,-173.8,158.1,-124.7,180.4,-80.9C202.8,-37.1,240,1.4,246.9,43.9C253.8,86.4,230.4,132.9,196.5,168C162.6,203.1,118,226.8,75.2,225.3C32.3,223.9,-8.9,197.3,-34.9,167.5C-60.9,137.7,-71.6,104.5,-92,80.2C-112.3,55.8,-142.3,40.3,-154.2,16.7C-166.1,-6.9,-159.9,-38.5,-147.7,-68.3C-135.5,-98.1,-117.2,-126,-91.6,-161C-66,-196,-33,-238,7.4,-249.5C47.8,-261,95.5,-242,123.1,-207.9Z" fill="#0693e3" />
  </g>
</svg>
  