<?xml version="1.0" standalone="no"?>
<svg
  width="600"
  height="600"
  viewBox="0 0 600 600"
  xmlns="http://www.w3.org/2000/svg"
>
  <g transform="translate(300,300)">
    <path d="M81.4,-100.4C122,-100.5,182.9,-105.9,210.6,-84.6C238.4,-63.3,233,-15.3,227.2,33.4C221.3,82.1,214.9,131.4,188.6,165.4C162.3,199.5,115.9,218.2,73.5,214.3C31,210.4,-7.6,183.9,-43.3,165.3C-78.9,146.6,-111.6,135.8,-121.9,112.2C-132.2,88.6,-120,52,-131.3,15.1C-142.6,-21.9,-177.3,-59.4,-177.4,-90.1C-177.5,-120.9,-143.1,-145,-107.8,-147.4C-72.4,-149.7,-36.2,-130.4,-7.9,-118C20.4,-105.7,40.7,-100.4,81.4,-100.4Z" fill="#9900ef" />
  </g>
</svg>
  