<?xml version="1.0" standalone="no"?>
<svg
  width="600"
  height="600"
  viewBox="0 0 600 600"
  xmlns="http://www.w3.org/2000/svg"
>
  <g transform="translate(300,300)">
    <path d="M82.7,-107.6C125,-101.4,189.4,-108.7,215.7,-87.7C242.1,-66.8,230.4,-17.7,222.6,31.6C214.9,80.8,211,130.1,183.1,154.1C155.2,178.2,103.4,176.9,55.9,191.3C8.4,205.7,-34.8,235.7,-65.7,225.8C-96.6,215.8,-115.2,165.9,-119.2,124C-123.2,82.2,-112.6,48.4,-107.8,21.1C-103.1,-6.3,-104.3,-27.2,-111.5,-67.3C-118.6,-107.3,-131.8,-166.4,-114.2,-183.8C-96.6,-201.3,-48.3,-177.2,-14.1,-155.3C20.2,-133.4,40.4,-113.8,82.7,-107.6Z" fill="#7bdcb5" />
  </g>
</svg>
  