<?xml version="1.0" standalone="no"?>
<svg
  width="600"
  height="600"
  viewBox="0 0 600 600"
  xmlns="http://www.w3.org/2000/svg"
>
  <g transform="translate(300,300)">
    <path d="M124.1,-164C168.2,-164.8,216.5,-142.8,231.4,-106.7C246.4,-70.5,228.1,-20.2,207.3,20.2C186.5,60.5,163.2,90.8,138.3,120.2C113.4,149.5,87,177.9,56.4,182.5C25.8,187.1,-8.9,167.9,-32.7,145.4C-56.6,122.9,-69.5,97.2,-107.6,78.9C-145.7,60.6,-208.9,49.9,-229.6,22.3C-250.3,-5.3,-228.4,-49.8,-202.2,-86.2C-176,-122.6,-145.6,-150.9,-111.2,-154.5C-76.8,-158.1,-38.4,-137.1,0.8,-138.3C40,-139.6,80,-163.2,124.1,-164Z" fill="#abb8c3" />
  </g>
</svg>
  