<?xml version="1.0" standalone="no"?>
<svg
  width="600"
  height="600"
  viewBox="0 0 600 600"
  xmlns="http://www.w3.org/2000/svg"
>
  <g transform="translate(300,300)">
    <path d="M88.9,-136.1C115.2,-121.5,136.3,-96.7,149.6,-68.1C163,-39.6,168.6,-7.3,172.6,30.9C176.6,69.1,179,113.1,161.5,148.1C143.9,183.1,106.5,209.1,68.6,208.8C30.8,208.5,-7.4,182,-56.5,175.3C-105.5,168.7,-165.4,181.9,-183,159.6C-200.6,137.4,-176,79.6,-162.8,36C-149.5,-7.6,-147.5,-37.1,-130.4,-53.3C-113.2,-69.5,-81,-72.6,-56.7,-88.1C-32.4,-103.5,-16.2,-131.2,7.6,-143C31.4,-154.8,62.7,-150.6,88.9,-136.1Z" fill="#fcb900" />
  </g>
</svg>
  